# xmcd
#
# Track frame offsets:
#	150
#	13546
#	25266
#	35164
#	42406
#	53317
#	62502
#	73298
#	82671
#	93171
#	105136
#	116856
#
# Disc length: 1686 seconds
#
# Revision: 1
# Processed by: cddbd v1.5.2PL0 Copyright (c) Steve Scherf et al.
# Submitted via: audiograbber 1.83.01
#
DISCID=8c06940c
DTITLE=George Jones - Country and Western No 1 Male Singer
DYEAR=1964
DGENRE=Country
TTITLE0=Seasons Of My Heart
TTITLE1=You're Still On My Mind
TTITLE2=I Wouldn't Know About That
TTITLE3=Before I Met You
TTITLE4=Long Time To Forget
TTITLE5=Maybe Little Baby
TTITLE6=Your Old Standby
TTITLE7=Whatcha Gonna Do
TTITLE8=Time Lock
TTITLE9=Out Of Control
TTITLE10=You Better Treat Your Man Right
TTITLE11=New Baby For Christmas
EXTD=
EXTT0=
EXTT1=
EXTT2=
EXTT3=
EXTT4=
EXTT5=
EXTT6=
EXTT7=
EXTT8=
EXTT9=
EXTT10=
EXTT11=
PLAYORDER=
